<?xml version="1.0" standalone="no"?><!DOCTYPE svg PUBLIC "-//W3C//DTD SVG 1.1//EN" "http://www.w3.org/Graphics/SVG/1.1/DTD/svg11.dtd"><svg t="1586674051571" class="icon" viewBox="0 0 1024 1024" version="1.1" xmlns="http://www.w3.org/2000/svg" p-id="2228" xmlns:xlink="http://www.w3.org/1999/xlink" width="128" height="128"><defs><style type="text/css"></style></defs><path d="M513.284 1008c-277.311 0-502.112-224.801-502.112-502.131 0-277.312 224.801-502.112 502.112-502.112 277.329 0 502.149 224.8 502.149 502.112 0 277.33-224.82 502.131-502.149 502.131zM498.066 779.749c2.576 59.367 16.169 120.794 30.435 121.744 14.267 0.951 29.406-110.904 30.437-121.744 1.031-10.817 11.455-114.134-28.235-115.362-38.146-0.592-34.46 57.564-32.636 115.362zM528.5 627.612c50.431 0 91.308-40.878 91.308-91.308 0-50.409-40.877-91.287-91.308-91.287-50.409 0-91.286 40.879-91.286 91.287 0.001 50.43 40.878 91.308 91.286 91.308zM96.614 402.792c-25.522 106.604-6.837 226.761 61.327 329.602 68.164 102.818 171.558 166.842 279.688 184.853 30.593-106.643 14.227-229.496-54.927-333.842-69.155-104.345-175.937-167.257-286.088-180.613zM178.53 323.293c-13.415 18.19 64.636 82.866 76.089 91.287 12.265 8.897 94.874 65.032 120.634 31.367 11.73-32.1-33.171-67.192-90.198-92.239-54.928-28.771-97.847-44.821-106.525-30.416zM513.284 79.827c-128.917 0-244.38 57.345-322.509 147.82 75.257 95.289 191.69 156.498 322.509 156.498 130.818 0 247.289-61.209 322.508-156.498-78.111-90.474-193.572-147.82-322.508-147.82zM849.543 334.806c-8.046-14.762-113.42 29.346-123.23 34.122-9.807 4.776-92.16 38.422-72.106 72.305 17.794 39.055 52.113 25.125 102.543-11.434 49.399-33.072 100.838-80.231 92.793-94.994zM650.303 594.124c-64.815 101.691-78.269 220.403-46.684 322.786 104.129-19.023 202.787-82.33 266.67-182.534 63.883-100.226 79.637-216.381 52.946-318.805-106.148 14.565-208.118 76.863-272.932 178.553z" p-id="2229"></path></svg>