<?xml version="1.0" standalone="no"?><!DOCTYPE svg PUBLIC "-//W3C//DTD SVG 1.1//EN" "http://www.w3.org/Graphics/SVG/1.1/DTD/svg11.dtd"><svg t="1587470430549" class="icon" viewBox="0 0 1024 1024" version="1.1" xmlns="http://www.w3.org/2000/svg" p-id="1713" xmlns:xlink="http://www.w3.org/1999/xlink" width="128" height="128"><defs><style type="text/css"></style></defs><path d="M512 305.7c-57.3 0-103.8-46.5-103.8-103.8S454.7 98.2 512 98.2 615.8 144.7 615.8 202 569.3 305.7 512 305.7z m0 311.3c-57.3 0-103.8-46.5-103.8-103.8S454.7 409.5 512 409.5 615.8 456 615.8 513.3 569.3 617 512 617z m0 311.3c-57.3 0-103.8-46.5-103.8-103.8S454.7 720.8 512 720.8s103.8 46.5 103.8 103.8S569.3 928.3 512 928.3z" p-id="1714"></path></svg>