<?xml version="1.0" standalone="no"?><!DOCTYPE svg PUBLIC "-//W3C//DTD SVG 1.1//EN" "http://www.w3.org/Graphics/SVG/1.1/DTD/svg11.dtd"><svg t="1586829496785" class="icon" viewBox="0 0 1024 1024" version="1.1" xmlns="http://www.w3.org/2000/svg" p-id="3571" xmlns:xlink="http://www.w3.org/1999/xlink" width="128" height="128"><defs><style type="text/css"></style></defs><path d="M393.8 688.8c0 82.9-67.2 150-150 150s-150-67.2-150-150 67.2-150 150-150 150 67.2 150 150z m-150 78c43.1 0 78-34.9 78-78s-34.9-78-78-78-78 34.9-78 78 34.9 78 78 78zM511 410.4c-82.8 0-150-67.2-150-150s67.2-150 150-150 150 67.2 150 150-67.2 150-150 150z m0-228c-43.1 0-78 34.9-78 78s34.9 78 78 78 78-34.9 78-78-34.9-78-78-78z m270 356.4c82.9 0 150 67.2 150 150s-67.2 150-150 150-150-67.2-150-150 67.2-150 150-150z m0 228c43.1 0 78-34.9 78-78s-34.9-78-78-78-78 34.9-78 78 34.9 78 78 78z m12-251.2c-11.6-79.9-56.4-149-119.9-193.1 7.4-19.3 11.5-40.3 11.5-62.2 0-5.3-0.2-10.6-0.7-15.8C788.5 302.6 861 411.7 867.5 538.2c-22.2-12.8-47.5-20.8-74.5-22.6zM651.8 804.8c17.5 19.4 39.2 34.8 63.7 44.8C657.6 890.2 587.1 914 511 914c-75.6 0-145.7-23.5-203.5-63.6 24.8-9.8 46.8-25.1 64.5-44.5 41.2 23 88.5 36.1 139 36.1 51.2 0 99.3-13.5 140.8-37.2zM348.9 322.6c-63.6 44-108.4 113.3-119.9 193.3-27.1 2.3-52.5 10.8-74.6 24.1 6-127.3 78.6-237.1 183.7-295.4-0.4 5.2-0.7 10.5-0.7 15.8 0 21.9 4.1 42.9 11.5 62.2z" p-id="3572"></path></svg>