<?xml version="1.0" standalone="no"?><!DOCTYPE svg PUBLIC "-//W3C//DTD SVG 1.1//EN" "http://www.w3.org/Graphics/SVG/1.1/DTD/svg11.dtd"><svg t="1586586477399" class="icon" viewBox="0 0 1024 1024" version="1.1" xmlns="http://www.w3.org/2000/svg" p-id="5773" xmlns:xlink="http://www.w3.org/1999/xlink" width="128" height="128"><defs><style type="text/css"></style></defs><path d="M11.54 162.29v461.35h690.625l0.596-461.35c0-11.547-9.301-20.907-20.748-20.907h-649.77c-11.443 0-20.705 9.361-20.704 20.907z" p-id="5774"></path><path d="M391.146 775.102h304.473c-0.018-0.844-0.118-1.686-0.118-2.567 0-6.217 3.718-32.475 5.727-39.252 7.63-25.817 42-98.624 130.985-98.624 90.645 0 123.372 72.806 131.003 98.624 1.986 6.778 5.707 33.036 5.707 39.252 0 0.881-0.101 1.723-0.14 2.567h22.697c11.446 0 20.726-9.342 20.726-20.889v-107.402c0-5.312-2.083-10.146-5.302-13.834v-156.209c0-120.832-79.019-183.293-82.396-185.899-3.634-2.804-8.048-4.307-12.598-4.307h-166.716c-6.141 0-11.585 2.747-15.381 7.036v343.996c0 8.434-5.454 13.91-13.812 13.91h-396.032c66.527 25.733 71.141 93.803 71.181 123.598zM765.92 450.732v-122.356h138.316c13.791 12.769 51.567 53.721 59.599 122.356h-197.915z" p-id="5775"></path><path d="M53.653 646.191c0 0.201-0.059 108.028-0.059 108.028 0 11.549 9.258 20.889 20.704 20.889h43.722c-8.245-64.458 49.987-123.258 82.070-128.915-26.156-0.001-146.437-0.001-146.437-0.001z" p-id="5776"></path><path d="M832.215 662.544c60.763 0 110.021 49.26 110.021 110.022 0 60.761-49.259 110.020-110.021 110.020s-110.020-49.26-110.020-110.020c0-60.763 49.258-110.022 110.020-110.022zM781.382 772.567c0 28.073 22.759 50.83 50.833 50.83s50.831-22.758 50.831-50.83c0-28.075-22.758-50.832-50.831-50.832-28.075 0-50.833 22.757-50.833 50.832z" p-id="5777"></path><path d="M255.55 662.544c60.763 0 110.020 49.26 110.020 110.022 0 60.761-49.258 110.020-110.020 110.020s-110.021-49.26-110.021-110.020c0-60.763 49.259-110.022 110.021-110.022zM204.716 772.567c0 28.073 22.758 50.83 50.832 50.83s50.832-22.758 50.832-50.83c0-28.075-22.758-50.832-50.832-50.832s-50.832 22.757-50.832 50.832z" p-id="5778"></path></svg>